# xmcd
#
# Track frame offsets:
#	150
#	9225
#	20492
#	34310
#	51817
#	67457
#	77257
#	94077
#	108897
#	123240
#	136057
#	147477
#	159870
#	171237
#
# Disc length: 2542 seconds
#
# Revision: 0
# Processed by: cddbd v1.5.2PL0 Copyright (c) Steve Scherf et al.
# Submitted via: dBpowerAMP V4.0
#
DISCID=b009ec0e
DTITLE=Al Martino - Style
DYEAR=1900
DGENRE=Easy Listening
TTITLE0=I Heard That Song Before
TTITLE1=Goody, Goody
TTITLE2=Begin The Beguine
TTITLE3=At Last
TTITLE4=What A Difference A Day Makes
TTITLE5=Opus One
TTITLE6=Someone To Watch Over Me
TTITLE7=Time After Time
TTITLE8=Night And Day
TTITLE9=You'll Never Know (Just How Much I Love You)
TTITLE10=Nice Work If You Can Get It
TTITLE11=It Don't Mean A Thing
TTITLE12=Gotta Be This Or That
TTITLE13=September Song
EXTD=
EXTT0=
EXTT1=
EXTT2=
EXTT3=
EXTT4=
EXTT5=
EXTT6=
EXTT7=
EXTT8=
EXTT9=
EXTT10=
EXTT11=
EXTT12=
EXTT13=
PLAYORDER=
